<svg xmlns="http://www.w3.org/2000/svg" viewBox="0 0 960 540" fill="none">
  <defs>
    <linearGradient id="bg" x1="0" y1="0" x2="960" y2="540" gradientUnits="userSpaceOnUse">
      <stop offset="0%" stop-color="#1a1d2e" />
      <stop offset="100%" stop-color="#222640" />
    </linearGradient>
    <filter id="glow">
      <feGaussianBlur stdDeviation="8" result="blur" />
      <feMerge>
        <feMergeNode in="blur" />
        <feMergeNode in="SourceGraphic" />
      </feMerge>
    </filter>
    <filter id="softGlow">
      <feGaussianBlur stdDeviation="20" />
    </filter>
  </defs>

  <!-- Background -->
  <rect width="960" height="540" fill="url(#bg)" rx="12" />

  <!-- Ambient glow -->
  <ellipse cx="480" cy="270" rx="300" ry="200" fill="#4d7aff" opacity="0.04" filter="url(#softGlow)" />

  <!-- Grid pattern -->
  <g opacity="0.04" stroke="#b8bfcf" stroke-width="0.5">
    <line x1="0" y1="108" x2="960" y2="108" />
    <line x1="0" y1="216" x2="960" y2="216" />
    <line x1="0" y1="324" x2="960" y2="324" />
    <line x1="0" y1="432" x2="960" y2="432" />
    <line x1="192" y1="0" x2="192" y2="540" />
    <line x1="384" y1="0" x2="384" y2="540" />
    <line x1="576" y1="0" x2="576" y2="540" />
    <line x1="768" y1="0" x2="768" y2="540" />
  </g>

  <!-- Connection lines -->
  <g stroke="#4d7aff" stroke-width="1.5" stroke-dasharray="6 4" opacity="0.35">
    <!-- Next.js App to Pricing Engine -->
    <line x1="480" y1="175" x2="480" y2="265" />
    <!-- Pricing Engine to PostgreSQL -->
    <line x1="480" y1="325" x2="480" y2="400" />
    <!-- Next.js App to Clerk Auth -->
    <line x1="360" y1="140" x2="210" y2="110" />
    <!-- Next.js App to Stripe -->
    <line x1="600" y1="130" x2="720" y2="85" />
    <!-- Next.js App to Salesforce -->
    <line x1="600" y1="160" x2="720" y2="185" />
    <!-- Next.js App to Shipping -->
    <line x1="600" y1="170" x2="720" y2="280" />
  </g>

  <!-- Arrow markers on lines -->
  <g fill="#4d7aff" opacity="0.5">
    <polygon points="480,260 475,250 485,250" />
    <polygon points="480,395 475,385 485,385" />
    <polygon points="215,112 222,105 225,117" />
    <polygon points="715,87 710,78 722,80" />
    <polygon points="715,183 710,174 722,177" />
    <polygon points="715,278 710,269 722,272" />
  </g>

  <!-- Central: Next.js App (primary, accented) -->
  <g filter="url(#glow)">
    <rect x="370" y="100" width="220" height="75" rx="12" fill="#4d7aff" fill-opacity="0.12" stroke="#4d7aff" stroke-width="1.5" />
  </g>
  <text x="480" y="132" text-anchor="middle" fill="#eef0f5" font-family="system-ui, -apple-system, sans-serif" font-size="15" font-weight="600">Next.js App</text>
  <text x="480" y="152" text-anchor="middle" fill="#4d7aff" font-family="system-ui, -apple-system, sans-serif" font-size="10" font-weight="400" opacity="0.8">CPQ Platform &amp; Dashboard</text>

  <!-- Pricing Engine -->
  <rect x="375" y="270" width="210" height="55" rx="10" fill="#2a2d42" stroke="#4d7aff" stroke-width="1" stroke-opacity="0.5" />
  <text x="480" y="294" text-anchor="middle" fill="#c8cdd8" font-family="system-ui, -apple-system, sans-serif" font-size="13" font-weight="500">Pricing Engine</text>
  <text x="480" y="311" text-anchor="middle" fill="#7a8194" font-family="system-ui, -apple-system, sans-serif" font-size="9">500+ variables · 4 product lines · LRU cache</text>

  <!-- PostgreSQL -->
  <rect x="395" y="405" width="170" height="50" rx="10" fill="#232639" stroke="#6b7389" stroke-width="1" stroke-opacity="0.4" />
  <text x="480" y="427" text-anchor="middle" fill="#b8bfcf" font-family="system-ui, -apple-system, sans-serif" font-size="12" font-weight="500">PostgreSQL</text>
  <text x="480" y="443" text-anchor="middle" fill="#6b7389" font-family="system-ui, -apple-system, sans-serif" font-size="9">Drizzle ORM · Self-Hosted Supabase</text>

  <!-- Clerk Auth (top left) -->
  <rect x="60" y="80" width="150" height="55" rx="10" fill="#232639" stroke="#6b7389" stroke-width="1" stroke-opacity="0.4" />
  <text x="135" y="104" text-anchor="middle" fill="#b8bfcf" font-family="system-ui, -apple-system, sans-serif" font-size="12" font-weight="500">Clerk Auth</text>
  <text x="135" y="121" text-anchor="middle" fill="#6b7389" font-family="system-ui, -apple-system, sans-serif" font-size="9">Authentication &amp; RBAC</text>

  <!-- Stripe (top right) -->
  <rect x="720" y="55" width="175" height="55" rx="10" fill="#232639" stroke="#6b7389" stroke-width="1" stroke-opacity="0.4" />
  <text x="808" y="79" text-anchor="middle" fill="#b8bfcf" font-family="system-ui, -apple-system, sans-serif" font-size="12" font-weight="500">Stripe</text>
  <text x="808" y="96" text-anchor="middle" fill="#6b7389" font-family="system-ui, -apple-system, sans-serif" font-size="9">Payments &amp; Webhooks</text>

  <!-- Salesforce (mid right) -->
  <rect x="720" y="160" width="175" height="55" rx="10" fill="#232639" stroke="#6b7389" stroke-width="1" stroke-opacity="0.4" />
  <text x="808" y="184" text-anchor="middle" fill="#b8bfcf" font-family="system-ui, -apple-system, sans-serif" font-size="12" font-weight="500">Salesforce</text>
  <text x="808" y="201" text-anchor="middle" fill="#6b7389" font-family="system-ui, -apple-system, sans-serif" font-size="9">CRM · 80+ Custom Field Mappings</text>

  <!-- Multi-Carrier Shipping (right) -->
  <rect x="720" y="260" width="175" height="55" rx="10" fill="#232639" stroke="#6b7389" stroke-width="1" stroke-opacity="0.4" />
  <text x="808" y="284" text-anchor="middle" fill="#b8bfcf" font-family="system-ui, -apple-system, sans-serif" font-size="12" font-weight="500">Shipping</text>
  <text x="808" y="301" text-anchor="middle" fill="#6b7389" font-family="system-ui, -apple-system, sans-serif" font-size="9">ShipStation · UPS · TForce Freight</text>

  <!-- Docker (bottom left) -->
  <rect x="60" y="270" width="170" height="55" rx="10" fill="#232639" stroke="#6b7389" stroke-width="1" stroke-opacity="0.3" />
  <text x="145" y="294" text-anchor="middle" fill="#9aa0b0" font-family="system-ui, -apple-system, sans-serif" font-size="12" font-weight="500">Docker</text>
  <text x="145" y="311" text-anchor="middle" fill="#6b7389" font-family="system-ui, -apple-system, sans-serif" font-size="9">Self-Hosted · Blue-Green Deploy</text>

  <!-- Rackspace Cloud Files (bottom right) -->
  <rect x="720" y="365" width="175" height="55" rx="10" fill="#232639" stroke="#6b7389" stroke-width="1" stroke-opacity="0.3" />
  <text x="808" y="389" text-anchor="middle" fill="#9aa0b0" font-family="system-ui, -apple-system, sans-serif" font-size="12" font-weight="500">Rackspace Cloud Files</text>
  <text x="808" y="406" text-anchor="middle" fill="#6b7389" font-family="system-ui, -apple-system, sans-serif" font-size="9">HMAC-Signed URLs</text>

  <!-- Nginx (bottom left under Docker) -->
  <rect x="60" y="370" width="170" height="55" rx="10" fill="#232639" stroke="#6b7389" stroke-width="1" stroke-opacity="0.3" />
  <text x="145" y="394" text-anchor="middle" fill="#9aa0b0" font-family="system-ui, -apple-system, sans-serif" font-size="12" font-weight="500">Nginx</text>
  <text x="145" y="411" text-anchor="middle" fill="#6b7389" font-family="system-ui, -apple-system, sans-serif" font-size="9">Rate Limiting · SSL · Routing</text>

  <!-- Secondary connection lines -->
  <g stroke="#6b7389" stroke-width="1" stroke-dasharray="4 6" opacity="0.2">
    <!-- Docker to Pricing Engine -->
    <line x1="230" y1="295" x2="375" y2="295" />
    <!-- Nginx to Docker -->
    <line x1="145" y1="370" x2="145" y2="325" />
    <!-- Next.js to Rackspace -->
    <line x1="590" y1="170" x2="720" y2="385" />
  </g>

  <!-- Title -->
  <text x="480" y="35" text-anchor="middle" fill="#6b7389" font-family="system-ui, -apple-system, sans-serif" font-size="11" font-weight="500" letter-spacing="3">SYSTEM ARCHITECTURE</text>

  <!-- Subtitle -->
  <text x="480" y="520" text-anchor="middle" fill="#6b7389" font-family="system-ui, -apple-system, sans-serif" font-size="9" opacity="0.6">PrintNinja CPQ Platform · 230,000+ lines · Built from scratch</text>
</svg>
